<svg width="22" height="21" viewBox="0 0 22 21" fill="none" xmlns="http://www.w3.org/2000/svg">
<g id="Group">
<circle id="Oval" cx="16.5" cy="15.5" r="4.5" stroke="#0C73FE" stroke-width="1.5" stroke-linecap="round" stroke-linejoin="round"/>
<path id="Path" d="M15 15.25L16.25 16.5L18.25 14.5" stroke="#0C73FE" stroke-width="1.5" stroke-linecap="round" stroke-linejoin="round"/>
<path id="Path_2" d="M19 8H3C2.46952 7.99985 1.96073 8.21052 1.58563 8.58563C1.21052 8.96073 0.999854 9.46952 1 10V13.93C1.0002 14.4822 1.4478 14.9298 2 14.93H9" stroke="#0C73FE" stroke-width="1.5" stroke-linecap="round" stroke-linejoin="round"/>
<path id="Path_3" d="M3 8V3C3 1.89543 3.89543 1 5 1H17C18.1046 1 19 1.89543 19 3V8" stroke="#0C73FE" stroke-width="1.5" stroke-linecap="round" stroke-linejoin="round"/>
<path id="Path_4" d="M2 14.93V16.997" stroke="#0C73FE" stroke-width="1.5" stroke-linecap="round" stroke-linejoin="round"/>
<path id="Path_5" fill-rule="evenodd" clip-rule="evenodd" d="M7.5 5H14.5C15.0523 5 15.5 5.44772 15.5 6V8H6.5V6C6.5 5.44772 6.94772 5 7.5 5Z" stroke="#0C73FE" stroke-width="1.5" stroke-linecap="round" stroke-linejoin="round"/>
</g>
</svg>
