<svg width="24" height="24" viewBox="0 0 24 24" fill="none" xmlns="http://www.w3.org/2000/svg">
<g id="Group">
<g id="Group_2">
<path id="Path" fill-rule="evenodd" clip-rule="evenodd" d="M17.5054 19.0031H6.50083C5.39537 19.0031 4.5 18.1078 4.5 17.0023V5.99771C4.5 4.34002 5.84356 2.99646 7.50125 2.99646H16.505C18.1627 2.99646 19.5063 4.34002 19.5063 5.99771V17.0023C19.5063 18.1078 18.6109 19.0031 17.5054 19.0031Z" stroke="#0C73FE" stroke-width="1.5" stroke-linecap="round" stroke-linejoin="round"/>
<path id="Path_2" d="M7.50195 16.0017H8.50237" stroke="#0C73FE" stroke-width="1.5" stroke-linecap="round" stroke-linejoin="round"/>
<path id="Path_3" d="M15.502 16.0017H16.5024" stroke="#0C73FE" stroke-width="1.5" stroke-linecap="round" stroke-linejoin="round"/>
<path id="Path_4" d="M8.23563 19.0034V20.5041C8.23563 21.0563 7.78744 21.5045 7.23521 21.5045H6.23479C5.68256 21.5045 5.23438 21.0563 5.23438 20.5041V18.5472" stroke="#0C73FE" stroke-width="1.5" stroke-linecap="round" stroke-linejoin="round"/>
<path id="Path_5" d="M18.7688 18.5472V20.5041C18.7688 21.0563 18.3206 21.5045 17.7684 21.5045H16.768C16.2158 21.5045 15.7676 21.0563 15.7676 20.5041V19.0034" stroke="#0C73FE" stroke-width="1.5" stroke-linecap="round" stroke-linejoin="round"/>
<path id="Path_6" d="M19.5059 6.99841H21.0065C21.5587 6.99841 22.0069 7.4466 22.0069 7.99883V11.0001" stroke="#0C73FE" stroke-width="1.5" stroke-linecap="round" stroke-linejoin="round"/>
<path id="Path_7" d="M4.49909 6.99811H2.99846C2.44623 6.99811 1.99805 7.44629 1.99805 7.99852V10.9998" stroke="#0C73FE" stroke-width="1.5" stroke-linecap="round" stroke-linejoin="round"/>
<path id="Path_8" d="M18.3599 3.64171L16.5901 5.41145C16.215 5.7866 15.7058 5.99769 15.1755 5.99769H8.8289C8.29868 5.99769 7.78947 5.7866 7.41432 5.41145L5.64258 3.63971" stroke="#0C73FE" stroke-width="1.5" stroke-linecap="round" stroke-linejoin="round"/>
<path id="Path_9" d="M19.5063 13.0006H4.5" stroke="#0C73FE" stroke-width="1.5" stroke-linecap="round" stroke-linejoin="round"/>
</g>
</g>
</svg>
