<svg width="28" height="28" viewBox="0 0 28 28" fill="none" xmlns="http://www.w3.org/2000/svg">
<g id="Group">
<path id="Path" d="M8.74935 3.5V7" stroke="#98AAC2" stroke-width="1.5" stroke-linecap="round" stroke-linejoin="round"/>
<path id="Path_2" d="M19.2493 3.5V7" stroke="#98AAC2" stroke-width="1.5" stroke-linecap="round" stroke-linejoin="round"/>
<rect id="Rectangle" x="3.5" y="5.25" width="21" height="19.25" rx="3" stroke="#98AAC2" stroke-width="1.5" stroke-linecap="round" stroke-linejoin="round"/>
<path id="Path_3" d="M19.3077 11.6666C19.3076 11.6344 19.2815 11.6084 19.2493 11.6084C19.2171 11.6084 19.191 11.6345 19.191 11.6667C19.191 11.6989 19.2171 11.725 19.2493 11.725C19.2648 11.7251 19.2796 11.7189 19.2906 11.708C19.3016 11.697 19.3077 11.6821 19.3077 11.6666" stroke="#98AAC2" stroke-width="1.5" stroke-linecap="round" stroke-linejoin="round"/>
<path id="Path_4" d="M14.0577 11.6666C14.0576 11.6344 14.0315 11.6084 13.9993 11.6084C13.9671 11.6084 13.941 11.6345 13.941 11.6667C13.941 11.6989 13.9671 11.725 13.9993 11.725C14.0148 11.7251 14.0296 11.7189 14.0406 11.708C14.0516 11.697 14.0577 11.6821 14.0577 11.6666" stroke="#98AAC2" stroke-width="1.5" stroke-linecap="round" stroke-linejoin="round"/>
<path id="Path_5" d="M18.6673 18.2168V15.8828H16.334" stroke="#98AAC2" stroke-width="1.5" stroke-linecap="round" stroke-linejoin="round"/>
<path id="Path_6" d="M9.33398 16.7995C11.1151 18.7461 13.9932 19.2293 16.3123 17.9711C17.1822 17.4975 17.8968 16.7828 18.3705 15.913" stroke="#98AAC2" stroke-width="1.5" stroke-linecap="round" stroke-linejoin="round"/>
<path id="Path_7" d="M8.80768 11.6666C8.80764 11.6344 8.78152 11.6084 8.74933 11.6084C8.71713 11.6084 8.69103 11.6345 8.69102 11.6667C8.691 11.6989 8.71708 11.725 8.74928 11.725C8.76477 11.7251 8.77964 11.7189 8.7906 11.708C8.80155 11.697 8.8077 11.6821 8.80768 11.6666" stroke="#98AAC2" stroke-width="1.5" stroke-linecap="round" stroke-linejoin="round"/>
</g>
</svg>
