<svg width="14" height="14" viewBox="0 0 14 14" fill="none" xmlns="http://www.w3.org/2000/svg">
<g id="Group">
<g id="Group_2">
<path id="Path" d="M9.33268 1.16663V3.49996" stroke="#899EB9" stroke-width="1.5" stroke-linecap="round" stroke-linejoin="round"/>
<path id="Path_2" d="M4.66667 1.16663V3.49996" stroke="#899EB9" stroke-linecap="round" stroke-linejoin="round"/>
<path id="Path_3" d="M1.75 5.25004H12.25" stroke="#899EB9" stroke-linecap="round" stroke-linejoin="round"/>
<path id="Path_4" fill-rule="evenodd" clip-rule="evenodd" d="M11.0833 2.33337H2.91667C2.27208 2.33337 1.75 2.85546 1.75 3.50004V11.0834C1.75 11.728 2.27208 12.25 2.91667 12.25H11.0833C11.7279 12.25 12.25 11.728 12.25 11.0834V3.50004C12.25 2.85546 11.7279 2.33337 11.0833 2.33337Z" stroke="#899EB9" stroke-linecap="round" stroke-linejoin="round"/>
<path id="Path_5" d="M4.09187 7.42525C4.01137 7.42525 3.94603 7.49059 3.94662 7.57109C3.94662 7.65159 4.01195 7.71692 4.09245 7.71692C4.17295 7.71692 4.23828 7.65159 4.23828 7.57109C4.23828 7.49059 4.17295 7.42525 4.09187 7.42525" stroke="#899EB9" stroke-linecap="round" stroke-linejoin="round"/>
<path id="Path_6" d="M7.00788 7.42525C6.92738 7.42525 6.86205 7.49059 6.86263 7.57109C6.86263 7.65159 6.92797 7.71692 7.00847 7.71692C7.08897 7.71692 7.1543 7.65159 7.1543 7.57109C7.1543 7.49059 7.08897 7.42525 7.00788 7.42525" stroke="#899EB9" stroke-linecap="round" stroke-linejoin="round"/>
<path id="Path_7" d="M9.9239 7.42525C9.8434 7.42525 9.77806 7.49059 9.77865 7.57109C9.77865 7.65159 9.84398 7.71692 9.92448 7.71692C10.005 7.71692 10.0703 7.65159 10.0703 7.57109C10.0703 7.49059 10.005 7.42525 9.9239 7.42525" stroke="#899EB9" stroke-linecap="round" stroke-linejoin="round"/>
<path id="Path_8" d="M4.09187 9.75863C4.01137 9.75863 3.94603 9.82396 3.94662 9.90446C3.94662 9.98496 4.01195 10.0503 4.09245 10.0503C4.17295 10.0503 4.23828 9.98496 4.23828 9.90446C4.23828 9.82396 4.17295 9.75863 4.09187 9.75863" stroke="#899EB9" stroke-linecap="round" stroke-linejoin="round"/>
<path id="Path_9" d="M7.00788 9.75863C6.92738 9.75863 6.86205 9.82396 6.86263 9.90446C6.86263 9.98496 6.92797 10.0503 7.00847 10.0503C7.08897 10.0503 7.1543 9.98496 7.1543 9.90446C7.1543 9.82396 7.08897 9.75863 7.00788 9.75863" stroke="#899EB9" stroke-linecap="round" stroke-linejoin="round"/>
</g>
</g>
</svg>
