<svg width="18" height="19" viewBox="0 0 18 19" fill="none" xmlns="http://www.w3.org/2000/svg">
<g id="Group">
<g id="Group_2">
<path id="Path" d="M12 2V5" stroke="#0C73FE" stroke-width="1.5" stroke-linecap="round" stroke-linejoin="round"/>
<path id="Path_2" d="M6 2V5" stroke="#0C73FE" stroke-linecap="round" stroke-linejoin="round"/>
<path id="Path_3" d="M2.25 7.25H15.75" stroke="#0C73FE" stroke-linecap="round" stroke-linejoin="round"/>
<path id="Path_4" fill-rule="evenodd" clip-rule="evenodd" d="M14.25 3.5H3.75C2.92125 3.5 2.25 4.17125 2.25 5V14.75C2.25 15.5788 2.92125 16.25 3.75 16.25H14.25C15.0788 16.25 15.75 15.5788 15.75 14.75V5C15.75 4.17125 15.0788 3.5 14.25 3.5Z" stroke="#0C73FE" stroke-linecap="round" stroke-linejoin="round"/>
<path id="Path_5" d="M5.25902 10.0468C5.15552 10.0468 5.07152 10.1308 5.07227 10.2343C5.07227 10.3378 5.15627 10.4218 5.25977 10.4218C5.36327 10.4218 5.44727 10.3378 5.44727 10.2343C5.44727 10.1308 5.36327 10.0468 5.25902 10.0468" stroke="#0C73FE" stroke-linecap="round" stroke-linejoin="round"/>
<path id="Path_6" d="M9.00902 10.0468C8.90552 10.0468 8.82152 10.1308 8.82227 10.2343C8.82227 10.3378 8.90627 10.4218 9.00977 10.4218C9.11327 10.4218 9.19727 10.3378 9.19727 10.2343C9.19727 10.1308 9.11327 10.0468 9.00902 10.0468" stroke="#0C73FE" stroke-linecap="round" stroke-linejoin="round"/>
<path id="Path_7" d="M12.759 10.0468C12.6555 10.0468 12.5715 10.1308 12.5723 10.2343C12.5723 10.3378 12.6563 10.4218 12.7598 10.4218C12.8633 10.4218 12.9473 10.3378 12.9473 10.2343C12.9473 10.1308 12.8633 10.0468 12.759 10.0468" stroke="#0C73FE" stroke-linecap="round" stroke-linejoin="round"/>
<path id="Path_8" d="M5.25902 13.0468C5.15552 13.0468 5.07152 13.1308 5.07227 13.2343C5.07227 13.3378 5.15627 13.4218 5.25977 13.4218C5.36327 13.4218 5.44727 13.3378 5.44727 13.2343C5.44727 13.1308 5.36327 13.0468 5.25902 13.0468" stroke="#0C73FE" stroke-linecap="round" stroke-linejoin="round"/>
<path id="Path_9" d="M9.00902 13.0468C8.90552 13.0468 8.82152 13.1308 8.82227 13.2343C8.82227 13.3378 8.90627 13.4218 9.00977 13.4218C9.11327 13.4218 9.19727 13.3378 9.19727 13.2343C9.19727 13.1308 9.11327 13.0468 9.00902 13.0468" stroke="#0C73FE" stroke-linecap="round" stroke-linejoin="round"/>
</g>
</g>
</svg>
