<svg width="16" height="20" viewBox="0 0 16 20" fill="none" xmlns="http://www.w3.org/2000/svg">
<g id="Frame" clip-path="url(#clip0_282_262)">
<g id="Group">
<g id="Group_2">
<path id="Vector" fill-rule="evenodd" clip-rule="evenodd" d="M7.63713 20C7.24944 19.9831 6.86298 19.9381 6.48144 19.8663C5.40267 19.6619 4.3719 19.2363 3.46482 18.6213C2.48144 17.9544 1.6482 17.065 1.05251 16.0437C0.616815 15.295 0.306673 14.4731 0.14175 13.6225C0.0519036 13.1575 0.00575174 12.685 0.00144405 12.2113V12.1563C0.000213276 12.1375 0.000819947 12.1187 0.000204562 12.0987C-0.00594928 11.4112 0.126969 10.7244 0.3682 10.0781C0.672815 9.26188 1.14358 8.50627 1.71835 7.83939C1.89435 7.63627 2.08021 7.43749 2.27898 7.25811L2.30544 7.23499L2.3282 7.21375C3.1282 6.47624 3.90174 5.71501 4.63589 4.91188C5.22974 4.26063 5.7959 3.58688 6.3079 2.87251C6.68451 2.34626 7.0359 1.79749 7.31344 1.21937C7.42174 0.993118 7.52081 0.75999 7.59097 0.52124C7.61066 0.455615 7.62912 0.388736 7.63897 0.321236L7.64451 0.286255C7.64697 0.275005 7.64944 0.26312 7.65313 0.252495C7.65928 0.233745 7.66606 0.216255 7.67467 0.200005C7.68452 0.180005 7.69559 0.161238 7.70851 0.143738C7.76513 0.0687378 7.85313 0.0168634 7.94728 0.0037384L7.96636 0.00125885C7.97867 8.85004e-06 7.99098 0 8.0039 0H8.01867L8.03036 0.00125885H8.03775C8.05744 0.00375885 8.06728 0.00563416 8.08451 0.00938416C8.15835 0.0275092 8.22174 0.0649927 8.26974 0.117493C8.29927 0.148743 8.32267 0.183764 8.3479 0.217514C9.44574 1.68689 10.3202 3.31624 10.9965 5.01686C11.426 6.09561 11.7774 7.20312 12.0464 8.33187C12.1079 8.59312 12.1664 8.85564 12.2187 9.11877C12.4784 8.70314 12.6605 8.24687 12.7307 7.76875C12.8107 7.225 12.7467 6.66251 12.5362 6.14876C12.5011 6.06438 12.4642 5.98186 12.4174 5.90248L12.3996 5.87002C12.3873 5.84127 12.383 5.83437 12.375 5.80437C12.3461 5.68999 12.3781 5.56251 12.4593 5.47501C12.5319 5.39751 12.6408 5.35312 12.7491 5.35999C12.8211 5.36374 12.8913 5.38939 12.9485 5.43251L12.9762 5.45502L12.9848 5.46314C13.8593 6.26877 14.5534 7.23939 15.0537 8.31001C15.4611 9.17876 15.7424 10.1056 15.8944 11.0544C15.9467 11.3819 15.9854 11.7119 15.9977 12.0431C16.0021 12.1512 16.0002 12.2606 15.9977 12.3687C15.9701 13.3331 15.7614 14.2925 15.3805 15.1844C14.9282 16.2419 14.2384 17.1987 13.3694 17.9725C12.4568 18.785 11.3547 19.3856 10.1774 19.7125C9.58666 19.8769 8.97744 19.9725 8.3639 20V19.9875C8.8759 19.9312 9.37251 19.7556 9.80144 19.4769C10.3097 19.1475 10.7214 18.6769 10.9756 18.1331C11.17 17.7175 11.2716 17.2587 11.2728 16.8025C11.274 16.4587 11.1904 16.1219 11.0845 15.7962C10.9184 15.2825 10.6876 14.7887 10.439 14.3069C10.0944 13.6381 9.70728 12.9906 9.30174 12.3556C8.98789 11.8637 8.66297 11.3775 8.32328 10.9044C8.30728 10.8831 8.29251 10.8612 8.27528 10.8419C8.22974 10.79 8.16943 10.7519 8.10297 10.7325C8.07343 10.7244 8.06605 10.7244 8.03528 10.72C8.01252 10.7187 7.98913 10.7175 7.96636 10.72C7.88575 10.7275 7.8082 10.7625 7.74973 10.8169C7.72758 10.8375 7.72327 10.8444 7.70481 10.8681L7.70235 10.8712L7.53621 11.1044C7.14297 11.6656 6.76451 12.2406 6.40512 12.8256C6.04697 13.4087 5.70543 14.0037 5.40574 14.6194C5.20266 15.0362 5.01559 15.4638 4.88144 15.9075C4.79713 16.1869 4.73375 16.4731 4.72821 16.7612C4.72391 17.0269 4.7559 17.2869 4.81806 17.5425C4.97929 18.205 5.36266 18.8119 5.89312 19.2513C6.38543 19.6594 6.99897 19.9169 7.63651 19.9881V20H7.63713Z" fill="url(#paint0_linear_282_262)"/>
</g>
</g>
</g>
<defs>
<linearGradient id="paint0_linear_282_262" x1="1328.16" y1="2000" x2="-81.5514" y2="291.644" gradientUnits="userSpaceOnUse">
<stop stop-color="#EF7B3A"/>
<stop offset="1" stop-color="#FF0000"/>
</linearGradient>
<clipPath id="clip0_282_262">
<rect width="16" height="20" fill="white"/>
</clipPath>
</defs>
</svg>
