<svg width="24" height="24" viewBox="0 0 24 24" fill="none" xmlns="http://www.w3.org/2000/svg">
<g id="Group">
<path id="Path" fill-rule="evenodd" clip-rule="evenodd" d="M10.9409 20.8951V20.8951C6.32361 19.9717 2.99999 15.9175 3 11.2088V8C3 5.23858 5.23858 3 8 3H16C18.7614 3 21 5.23858 21 8V11.2088C21 15.9174 17.6765 19.9715 13.0593 20.8951H13.0591C12.36 21.0349 11.64 21.0349 10.9409 20.8951V20.8951Z" stroke="#0C73FE" stroke-width="1.5" stroke-linecap="round" stroke-linejoin="round"/>
<path id="Path_2" fill-rule="evenodd" clip-rule="evenodd" d="M13.625 13.125V14.5C13.625 15.0523 13.1773 15.5 12.625 15.5H11.375C10.8227 15.5 10.375 15.0523 10.375 14.5V13.125H9C8.44772 13.125 8 12.6773 8 12.125V10.875C8 10.3227 8.44772 9.875 9 9.875H10.375V8.5C10.375 7.94772 10.8227 7.5 11.375 7.5H12.625C13.1773 7.5 13.625 7.94772 13.625 8.5V9.875H15C15.5523 9.875 16 10.3227 16 10.875V12.125C16 12.6773 15.5523 13.125 15 13.125H13.625Z" stroke="#0C73FE" stroke-width="1.5" stroke-linecap="round" stroke-linejoin="round"/>
</g>
</svg>
