<svg width="38" height="38" viewBox="0 0 38 38" fill="none" xmlns="http://www.w3.org/2000/svg">
<g id="&#208;&#183;&#208;&#176;&#208;&#179;&#209;&#128;&#209;&#131;&#208;&#182;&#208;&#181;&#208;&#189;&#208;&#189;&#208;&#190;&#208;&#181; (24) 1" clip-path="url(#clip0_333_314)">
<path id="Vector" d="M19 23.75C21.6234 23.75 23.75 21.6234 23.75 19C23.75 16.3766 21.6234 14.25 19 14.25C16.3766 14.25 14.25 16.3766 14.25 19C14.25 21.6234 16.3766 23.75 19 23.75Z" fill="white"/>
<path id="Vector_2" d="M25.5312 4.15625H12.4688C10.2649 4.15875 8.15204 5.03533 6.59368 6.59368C5.03533 8.15204 4.15875 10.2649 4.15625 12.4688V25.5312C4.15875 27.7351 5.03533 29.848 6.59368 31.4063C8.15204 32.9647 10.2649 33.8413 12.4688 33.8438H25.5312C27.7351 33.8413 29.848 32.9647 31.4063 31.4063C32.9647 29.848 33.8413 27.7351 33.8438 25.5312V12.4688C33.8413 10.2649 32.9647 8.15204 31.4063 6.59368C29.848 5.03533 27.7351 4.15875 25.5312 4.15625ZM19 26.125C17.5908 26.125 16.2133 25.7071 15.0416 24.9242C13.8699 24.1413 12.9566 23.0285 12.4174 21.7266C11.8781 20.4247 11.737 18.9921 12.0119 17.61C12.2868 16.2279 12.9654 14.9583 13.9619 13.9619C14.9583 12.9654 16.2279 12.2868 17.61 12.0119C18.9921 11.737 20.4247 11.8781 21.7266 12.4174C23.0285 12.9566 24.1413 13.8699 24.9242 15.0416C25.7071 16.2133 26.125 17.5908 26.125 19C26.1229 20.889 25.3715 22.7 24.0358 24.0358C22.7 25.3715 20.889 26.1229 19 26.125ZM26.7188 13.0625C26.3665 13.0625 26.0221 12.958 25.7291 12.7623C25.4362 12.5666 25.2079 12.2884 25.0731 11.9629C24.9383 11.6374 24.903 11.2793 24.9717 10.9337C25.0405 10.5882 25.2101 10.2708 25.4592 10.0217C25.7083 9.7726 26.0257 9.60296 26.3712 9.53423C26.7168 9.4655 27.0749 9.50077 27.4004 9.63559C27.7259 9.77041 28.0041 9.99872 28.1998 10.2916C28.3955 10.5846 28.5 10.929 28.5 11.2812C28.5 11.7537 28.3123 12.2067 27.9783 12.5408C27.6442 12.8748 27.1912 13.0625 26.7188 13.0625Z" fill="white"/>
</g>
<defs>
<clipPath id="clip0_333_314">
<rect width="38" height="38" fill="white"/>
</clipPath>
</defs>
</svg>
