<svg width="25" height="35" viewBox="0 0 25 35" fill="none" xmlns="http://www.w3.org/2000/svg">
<g id="Group">
<g id="Group_2">
<path id="Vector" d="M12.6452 0C5.8901 0 0 5.1916 0 12.0361C0 14.3483 0.385317 17.3002 1.58065 19.2578L11.8548 34.5036C12.2581 35.1634 13.0448 35.1675 13.4355 34.5036L22.9194 18.4554C24.0478 16.5392 24.5 14.2796 24.5 12.0361C24.5 5.1916 19.4002 0 12.6452 0ZM12.6452 18.4554C9.2189 18.4554 6.32258 15.4303 6.32258 12.0361C6.32258 8.61387 9.26763 6.41927 12.6452 6.41927C16.0227 6.41927 18.1774 8.61387 18.1774 12.0361C18.1774 15.4003 16.1079 18.4554 12.6452 18.4554Z" fill="#0C73FE"/>
</g>
</g>
</svg>
