<svg width="24" height="24" viewBox="0 0 24 24" fill="none" xmlns="http://www.w3.org/2000/svg">
<g id="mdi:sale">
<path id="Vector" d="M18.1688 4.00371L18.7347 7.58441L21.9907 9.2449L20.3488 12.4917L22 15.7384L18.7161 17.3989L18.1503 20.9796L14.5417 20.4137L11.9722 22.974L9.39332 20.3766L5.81262 20.9703L5.23748 17.3618L2 15.7106L3.65121 12.4638L2.00928 9.2449L5.26531 7.56586L5.83117 4.01299L9.42115 4.60668L12 2L14.5696 4.56957L18.1688 4.00371ZM9.68089 7.85343C9.31185 7.85343 8.95793 8.00003 8.69697 8.26098C8.43602 8.52193 8.28942 8.87586 8.28942 9.2449C8.28942 9.61394 8.43602 9.96786 8.69697 10.2288C8.95793 10.4898 9.31185 10.6364 9.68089 10.6364C10.0499 10.6364 10.4039 10.4898 10.6648 10.2288C10.9258 9.96786 11.0724 9.61394 11.0724 9.2449C11.0724 8.87586 10.9258 8.52193 10.6648 8.26098C10.4039 8.00003 10.0499 7.85343 9.68089 7.85343ZM14.3191 14.3469C13.9501 14.3469 13.5961 14.4935 13.3352 14.7545C13.0742 15.0154 12.9276 15.3694 12.9276 15.7384C12.9276 16.1074 13.0742 16.4614 13.3352 16.7223C13.5961 16.9833 13.9501 17.1299 14.3191 17.1299C14.6881 17.1299 15.0421 16.9833 15.303 16.7223C15.564 16.4614 15.7106 16.1074 15.7106 15.7384C15.7106 15.3694 15.564 15.0154 15.303 14.7545C15.0421 14.4935 14.6881 14.3469 14.3191 14.3469ZM8.66976 17.1299L16.6382 9.16141L15.3302 7.85343L7.36178 15.8219L8.66976 17.1299Z" fill="#FFC700"/>
</g>
</svg>
