<svg width="22" height="22" viewBox="0 0 22 22" fill="none" xmlns="http://www.w3.org/2000/svg">
<g id="Frame 349">
<g id="&#208;&#183;&#208;&#176;&#208;&#179;&#209;&#128;&#209;&#131;&#208;&#183;&#208;&#186;&#208;&#176; 1">
<g id="Group">
<g id="Group_2">
<path id="Vector" d="M2.02716 7.19695C2.1142 7.72082 2.23025 8.27379 2.37532 8.76855C3.24572 11.9118 5.13159 14.3565 7.51069 16.452C9.39656 18.1109 11.6596 19.275 14.0967 19.7989C15.7505 20.1481 17.2012 19.5661 18.3617 18.4019C18.913 17.8489 19 17.034 19 16.2482C19 16.1027 18.7969 15.899 18.6228 15.7826C18.0716 15.4333 17.4623 15.1423 16.853 14.793L15.4894 13.949C15.0252 13.658 14.7931 13.658 14.3869 14.0654C13.9807 14.4729 13.6035 14.9386 13.1973 15.4042C12.6461 16.0445 12.443 16.0445 11.6886 15.608C9.9188 14.6184 8.35208 13.3961 7.22056 11.6789C6.8724 11.1551 6.52424 10.573 6.20509 10.02C5.91495 9.52525 5.97298 9.32153 6.37917 8.91407C6.78536 8.50662 7.33661 8.09917 7.77181 7.69171C8.29405 7.19695 8.29405 6.99322 7.91688 6.38204C7.39464 5.50893 6.8724 4.57761 6.32114 3.67539C5.94397 2.9769 5.76989 2.94779 4.98653 3.0351C3.27474 3.23883 2.66545 4.5194 2.17223 5.91638C1.99815 6.35294 1.96913 6.76039 2.02716 7.19695Z" fill="#0C73FE"/>
</g>
</g>
</g>
</g>
</svg>
