<svg width="18" height="19" viewBox="0 0 18 19" fill="none" xmlns="http://www.w3.org/2000/svg">
<g id="Group">
<path id="Path" d="M7.93934 12.1517L4.17049 15.9205C3.73116 16.3598 3.01884 16.3598 2.5795 15.9205V15.9205C2.14017 15.4812 2.14017 14.7689 2.5795 14.3295L6.34835 10.5607" stroke="#0C73FE" stroke-linecap="round" stroke-linejoin="round"/>
<path id="Path_2" d="M12.9748 2.75L9.45884 6.26586C8.87309 6.85167 8.87309 7.80139 9.45884 8.38719L9.98921 8.91751C10.2705 9.19882 10.652 9.35686 11.0499 9.35686C11.4477 9.35686 11.8292 9.19882 12.1105 8.91751L15.6264 5.40164" stroke="#0C73FE" stroke-linecap="round" stroke-linejoin="round"/>
<path id="Path_3" fill-rule="evenodd" clip-rule="evenodd" d="M10.3633 12.4545L11.9543 10.8635L15.4203 14.3295C15.8596 14.7689 15.8596 15.4812 15.4203 15.9205V15.9205C14.9809 16.3599 14.2686 16.3599 13.8293 15.9205L10.3633 12.4545Z" stroke="#0C73FE" stroke-linecap="round" stroke-linejoin="round"/>
<path id="Path_4" d="M12.1699 6.20744L14.3015 4.07587" stroke="#0C73FE" stroke-linecap="round" stroke-linejoin="round"/>
<path id="Path_5" d="M11.3173 10.2377L11.9553 10.8636L9.56881 13.25C9.49849 13.3204 9.4031 13.3599 9.30365 13.3599C9.20419 13.3599 9.10881 13.3204 9.03848 13.25L6.3039 10.5155C3.86873 8.08029 3.07909 4.92174 4.5402 3.46063H4.55238L4.54142 3.45941L11.9504 10.8684" stroke="#0C73FE" stroke-linecap="round" stroke-linejoin="round"/>
<path id="Path_6" d="M13.4973 7.53318L10.8457 4.88153" stroke="#0C73FE" stroke-linecap="round" stroke-linejoin="round"/>
</g>
</svg>
