<svg width="14" height="14" viewBox="0 0 14 14" fill="none" xmlns="http://www.w3.org/2000/svg">
<g id="Group">
<path id="Path" d="M6.17504 9.06239L3.24372 11.9937C2.90201 12.3354 2.34799 12.3354 2.00628 11.9937V11.9937C1.66457 11.652 1.66457 11.098 2.00628 10.7563L4.93761 7.82495" stroke="#899EB9" stroke-linecap="round" stroke-linejoin="round"/>
<path id="Path_2" d="M10.0919 1.75L7.35731 4.48456C6.90173 4.94019 6.90173 5.67886 7.35731 6.13448L7.76982 6.54695C7.98861 6.76575 8.28535 6.88867 8.59476 6.88867C8.90418 6.88867 9.20092 6.76575 9.41971 6.54695L12.1543 3.81239" stroke="#899EB9" stroke-linecap="round" stroke-linejoin="round"/>
<path id="Path_3" fill-rule="evenodd" clip-rule="evenodd" d="M8.06055 9.29797L9.29798 8.06054L11.9938 10.7563C12.3355 11.098 12.3355 11.652 11.9938 11.9937V11.9937C11.652 12.3355 11.098 12.3355 10.7563 11.9937L8.06055 9.29797Z" stroke="#899EB9" stroke-linecap="round" stroke-linejoin="round"/>
<path id="Path_4" d="M9.46484 4.43914L11.1227 2.78125" stroke="#899EB9" stroke-linecap="round" stroke-linejoin="round"/>
<path id="Path_5" d="M8.80256 7.57378L9.29878 8.06054L7.44263 9.91669C7.38793 9.97139 7.31374 10.0021 7.23639 10.0021C7.15903 10.0021 7.08484 9.97139 7.03015 9.91669L4.90325 7.78979C3.00923 5.89577 2.39507 3.43912 3.53148 2.30271H3.54095L3.53243 2.30176L9.29499 8.06432" stroke="#899EB9" stroke-linecap="round" stroke-linejoin="round"/>
<path id="Path_6" d="M10.4979 5.47023L8.43555 3.40784" stroke="#899EB9" stroke-linecap="round" stroke-linejoin="round"/>
</g>
</svg>
