<svg width="20" height="20" viewBox="0 0 20 20" fill="none" xmlns="http://www.w3.org/2000/svg">
<g id="Group">
<path id="Path" d="M10.1509 9.59138L8.02539 14.6056" stroke="white" stroke-width="1.5" stroke-linecap="round" stroke-linejoin="round"/>
<path id="Path_2" fill-rule="evenodd" clip-rule="evenodd" d="M12.9513 2.98572V2.98572C15.7814 4.18683 17.274 7.30764 16.4325 10.2647L16.3778 10.4579C16.2638 10.8595 15.9827 11.1927 15.6062 11.3728C15.2296 11.5529 14.7939 11.5626 14.4097 11.3994L5.88669 7.78102C5.50236 7.61795 5.2066 7.29764 5.07462 6.90156C4.94264 6.50548 4.98716 6.07179 5.19686 5.71078L5.29748 5.53651C6.84063 2.87803 10.1218 1.78451 12.9513 2.98572Z" stroke="white" stroke-width="1.5" stroke-linecap="round" stroke-linejoin="round"/>
<path id="Path_3" d="M12.951 2.98572L13.1398 3.7492C13.7008 6.02046 13.2082 8.4236 11.7988 10.291V10.291" stroke="white" stroke-width="1.5" stroke-linecap="round" stroke-linejoin="round"/>
<path id="Path_4" d="M12.9508 2.98572L12.2705 3.38022C10.247 4.55461 8.86051 6.57835 8.49609 8.88938V8.88938" stroke="white" stroke-width="1.5" stroke-linecap="round" stroke-linejoin="round"/>
<path id="Path_5" d="M2.5 16.6667C3.82838 15.3383 5.63006 14.592 7.50867 14.592C9.38729 14.592 11.189 15.3383 12.5173 16.6667" stroke="white" stroke-width="1.5" stroke-linecap="round" stroke-linejoin="round"/>
</g>
</svg>
