<svg width="150" height="50" viewBox="0 0 150 50" fill="none" xmlns="http://www.w3.org/2000/svg">
<g id="Logo 1" clip-path="url(#clip0_282_200)">
<g id="&#208;&#161;&#208;&#187;&#208;&#190;&#208;&#185;_x0020_1">
<g id="_2319475502688">
<path id="Vector" fill-rule="evenodd" clip-rule="evenodd" d="M30.282 39.3749C30.1184 38.6483 29.7144 37.8763 29.4863 37.1694C29.2229 36.3536 28.9971 35.6416 28.7555 34.792C28.3204 33.2609 27.9965 31.3574 27.7877 29.6314C27.329 25.8387 27.5944 21.6277 28.3245 18.3409C28.7215 16.5533 29.1372 15.1635 29.6882 13.5896C30.6251 10.9131 32.2513 7.79234 33.8582 5.57993L36.5405 2.08868C34.1777 2.65817 33.0573 2.71274 30.572 3.64209C28.6227 4.37096 27.0912 5.12068 25.3705 6.09328C23.0917 7.3814 18.6479 10.7652 16.9577 13.0551L15.2646 15.1677C14.6685 15.9096 14.2193 16.6779 13.7285 17.4426C10.5982 22.3208 8.47852 28.9283 8.47852 35.5102C8.78812 35.3565 9.35051 35.1587 9.7266 35.0261C14.1738 33.4584 19.1857 33.4534 23.4608 35.1525C23.9539 35.3484 24.3102 35.4563 24.7651 35.683C25.2098 35.9045 25.5318 36.0833 25.9755 36.3106C28.2136 37.4572 29.7141 39.0639 30.2819 39.3747L30.282 39.3749Z" fill="#F49E38"/>
<path id="Vector_2" fill-rule="evenodd" clip-rule="evenodd" d="M30.4844 24.9617C30.4844 27.7838 30.5399 29.567 31.1513 32.3137C31.793 35.1966 31.4245 34.4822 33.0079 35.3017C36.2508 36.9798 37.8185 38.0463 40.7666 40.3292C41.1116 40.5964 41.3308 40.7979 41.689 41.0459C41.5204 40.2975 39.4835 36.4158 38.5339 31.4642C38.2218 29.8373 37.641 26.2414 37.6507 24.3359C37.6585 22.7908 37.5138 21.4294 37.6566 19.6407C38.037 14.8768 38.9447 10.5559 40.5056 6.50434C41.2859 4.47927 42.0484 2.95514 43.0359 1.08018C43.2185 0.733695 43.5176 0.346005 43.607 -0.000120163C42.9935 0.147823 40.9735 1.94833 40.3534 2.58684C39.7246 3.23452 39.5374 3.15368 38.5749 4.40205L36.9765 6.29929C33.3011 10.9985 30.4845 17.9896 30.4845 24.9617H30.4844Z" fill="#E9525F"/>
<path id="Vector_3" fill-rule="evenodd" clip-rule="evenodd" d="M0 42.2668C0.591149 42.2531 3.87724 41.9138 5.04393 41.878C5.4057 41.867 6.33466 41.787 7.16308 41.7729C11.9866 41.6906 15.4145 42.5487 19.3429 43.9054C24.8128 45.7941 30.92 48.7248 36.4541 49.7004C37.3787 49.8634 38.5564 49.9187 39.4966 50C40.4369 50.0813 42.4406 49.7611 42.4406 49.7611C44.1824 49.5017 46.1277 48.9922 47.7586 48.4748C48.1759 48.3424 48.5864 48.1893 48.9699 48.0571C49.5603 47.8537 49.9568 47.8202 50.1684 47.5216L48.1496 47.6259C45.456 47.6259 42.2965 46.7823 40.2636 46.0723C33.5787 43.7373 24.4421 39.4794 18.1697 39.4794C11.5066 39.4794 8.02972 39.9027 1.85799 41.506C1.10405 41.7019 0.473165 42.1036 0 42.2668Z" fill="#303665"/>
<path id="Vector_4" fill-rule="evenodd" clip-rule="evenodd" d="M98.8223 32.7951C101.737 32.7951 101.469 33.0158 101.453 31.9656L101.447 23.1863C101.462 23.205 101.485 23.2111 101.491 23.2449L103.733 27.7136C104.649 29.5793 104.253 29.1396 106.696 29.1396C107.064 29.1396 107.196 28.4218 107.585 27.7616L109.926 23.1864L109.922 31.8587C109.904 33.0152 109.607 32.7952 112.348 32.7952C112.581 32.7952 112.651 32.7225 112.651 32.4818V18.2775C109.223 18.2775 110.068 17.7752 108.883 20.2272L105.585 26.633L102.019 19.2523C101.422 18.0127 101.99 18.2774 98.8224 18.2774L98.8223 32.7951Z" fill="#303665"/>
<path id="Vector_5" fill-rule="evenodd" clip-rule="evenodd" d="M65.0068 30.6017C62.0722 30.6017 60.5654 28.6083 60.5654 25.5885C60.5654 21.0346 63.8665 19.5792 66.5523 20.7516C70.2497 22.3654 69.9342 30.6017 65.0068 30.6017ZM57.84 24.8573C57.84 27.5197 57.9697 29.0997 59.8831 31.0988C63.3559 34.7272 71.7699 33.115 71.7699 26.1107C71.7699 23.647 71.5434 21.793 69.8568 20.048C67.2533 17.3542 61.8422 17.3081 59.4229 20.4378C58.4384 21.7111 57.8398 23.0635 57.8398 24.8574L57.84 24.8573Z" fill="#303665"/>
<path id="Vector_6" fill-rule="evenodd" clip-rule="evenodd" d="M120.222 30.7063C119.333 30.7063 119.049 30.7814 118.304 30.6018V26.2152C119.508 26.2152 120.675 26.1247 121.739 26.6297C122.325 26.908 122.661 27.4578 122.723 28.2249C122.772 28.832 122.443 29.7465 122.115 30.0544C121.734 30.4124 120.915 30.7061 120.222 30.7061V30.7063ZM118.304 24.1264V20.3665C119.388 20.2545 122.241 20.0271 122.241 21.7241C122.241 22.6924 122.333 23.4162 120.866 23.8531C120.351 24.0067 118.921 24.1264 118.304 24.1264ZM115.578 18.382V32.6906C116.353 32.6906 117.096 32.902 117.897 32.9031C120.408 32.9065 124.416 33.2947 125.193 29.7929C125.79 27.1036 124.057 25.1081 122.24 25.0663V24.8573C123.362 24.7608 124.764 23.3904 124.764 22.1418C124.764 20.7907 124.715 19.5835 123.086 18.7606C120.788 17.6005 117.854 18.186 115.578 18.3819L115.578 18.382Z" fill="#303665"/>
<path id="Vector_7" fill-rule="evenodd" clip-rule="evenodd" d="M127.188 26.0063C127.188 30.7454 128.694 33.0381 133.241 32.9032C136.173 32.8163 138.089 30.6169 138.089 27.4685V18.2774H135.465V26.5284C135.465 27.5599 135.337 28.5617 134.998 29.2832C134.082 31.2315 130.014 31.4804 130.014 27.2595V18.2773H127.188V26.0061V26.0063Z" fill="#303665"/>
<path id="Vector_8" fill-rule="evenodd" clip-rule="evenodd" d="M85.1953 27.4685C85.1953 30.5489 87.0957 32.8237 89.9419 32.902C92.0173 32.9593 93.6757 32.8211 95.046 30.872C95.873 29.6956 96.097 27.988 96.097 26.0063V18.2774H93.3716V27.0507C93.3716 29.3183 92.605 30.6018 90.4443 30.6018C88.5988 30.6018 87.9209 28.9701 87.9209 27.0507V18.2774H85.1954V27.4685H85.1953Z" fill="#303665"/>
<path id="Vector_9" fill-rule="evenodd" clip-rule="evenodd" d="M140.41 21.933C140.41 23.8488 141.697 25.2373 143.25 25.8881C145.031 26.635 147.274 26.9183 147.274 28.6172C147.274 31.1742 144.456 30.8696 142.818 30.3033C142.285 30.1188 141.464 29.4914 141.016 29.4528C140.969 30.0413 140.546 31.0436 140.41 31.6461C143.439 33.7449 150 33.693 150 28.9304C150 27.0114 149.379 25.9692 147.877 25.0695C146.224 24.08 144.826 24.0537 143.984 23.4574C142.679 22.5339 142.98 20.6496 144.662 20.3786C146.249 20.123 147.984 20.5952 149.091 21.2017C149.343 20.6593 149.445 19.5508 149.697 19.0085C147.318 17.8274 142.428 17.2964 140.853 20.1976C140.674 20.526 140.41 21.4844 140.41 21.933Z" fill="#303665"/>
<path id="Vector_10" fill-rule="evenodd" clip-rule="evenodd" d="M44.4141 24.8573V26.1106C44.4141 29.9061 47.0327 32.2097 50.0375 32.8254L51.6669 32.9313C52.9287 32.913 54.0426 32.7039 55.145 32.2004C55.5609 32.0104 55.5915 31.8544 56.0225 31.7505C56.0085 31.1063 55.471 30.2466 55.3158 29.5573C53.6228 30.4842 51.674 31.1714 49.7343 30.2147C45.0195 27.8895 46.9277 18.2977 53.7656 20.7172C54.3574 20.9266 54.8126 21.2895 55.3158 21.4109C55.4657 20.7455 55.9666 20.0167 56.0225 19.3221C55.3681 18.9639 54.9798 18.7028 54.142 18.4477C51.6201 17.6799 48.3538 17.9959 46.458 19.9746C45.2248 21.2617 44.4142 22.8321 44.4142 24.8574L44.4141 24.8573Z" fill="#303665"/>
<path id="Vector_11" fill-rule="evenodd" clip-rule="evenodd" d="M73.8887 32.795H82.8725V30.3929H76.7151V18.2774H73.8887V32.795Z" fill="#303665"/>
<path id="Vector_12" fill-rule="evenodd" clip-rule="evenodd" d="M0.503906 46.1637L4.32489 45.8349C9.79893 45.215 13.0722 45.9846 17.9883 47.395C18.9959 47.684 19.9366 48.1263 20.8942 48.3571C20.4057 47.6024 17.107 45.9218 16.0794 45.5057C11.2004 43.5306 5.68266 43.772 0.890476 45.9371L0.503906 46.1638V46.1637Z" fill="#303665"/>
<path id="Vector_13" fill-rule="evenodd" clip-rule="evenodd" d="M30.2832 39.3749V39.4793L30.4003 39.3923L30.2832 39.3749Z" fill="#F29D37"/>
<path id="Vector_14" fill-rule="evenodd" clip-rule="evenodd" d="M50.3708 40.7326C50.3805 40.743 50.4 40.6868 50.4001 40.7015C50.3982 40.7035 50.361 40.7222 50.3708 40.7326Z" fill="#303766"/>
<path id="Vector_15" fill-rule="evenodd" clip-rule="evenodd" d="M55.3161 32.795L55.3454 32.764C55.3435 32.7659 55.3063 32.7847 55.3161 32.795Z" fill="#303766"/>
</g>
</g>
</g>
<defs>
<clipPath id="clip0_282_200">
<rect width="150" height="50" fill="white"/>
</clipPath>
</defs>
</svg>
