<svg width="32" height="32" viewBox="0 0 32 32" fill="none" xmlns="http://www.w3.org/2000/svg">
<g id="Group">
<g id="Layer_22">
<path id="Path" fill-rule="evenodd" clip-rule="evenodd" d="M9.33398 8V18.6667C9.33398 20.8758 11.1248 22.6667 13.334 22.6667H24.0007C26.2098 22.6667 28.0006 20.8758 28.0006 18.6667V8C28.0006 5.79086 26.2098 4 24.0007 4H13.334C11.1248 4 9.33398 5.79086 9.33398 8Z" stroke="#C3C3C3" stroke-width="1.5" stroke-linecap="round" stroke-linejoin="round"/>
<path id="Path_2" d="M21.0676 11.4837C20.9891 10.2239 19.9087 9.26356 18.6484 9.33335C17.5223 9.28661 16.5223 10.0478 16.2676 11.1458" stroke="#C3C3C3" stroke-width="1.5" stroke-linecap="round" stroke-linejoin="round"/>
<path id="Path_3" d="M21.066 11.4837V11.4837C21.066 12.2412 20.6553 12.9392 19.9932 13.307L18.666 14.0444" stroke="#C3C3C3" stroke-width="1.5" stroke-linecap="round" stroke-linejoin="round"/>
<path id="Path_4" d="M18.7667 17.2334C18.7666 17.2886 18.7218 17.3333 18.6666 17.3333C18.6114 17.3333 18.5667 17.2886 18.5667 17.2334C18.5666 17.1782 18.6113 17.1334 18.6665 17.1333C18.6931 17.1333 18.7186 17.1438 18.7374 17.1626C18.7562 17.1814 18.7667 17.2069 18.7667 17.2334" stroke="#C3C3C3" stroke-width="1.5" stroke-linecap="round" stroke-linejoin="round"/>
<path id="Path_5" d="M22.6667 22.6666V24C22.6667 26.2091 20.8758 28 18.6667 28H8C5.79086 28 4 26.2091 4 24V13.3333C4 11.1242 5.79086 9.33331 8 9.33331H9.33333" stroke="#C3C3C3" stroke-width="1.5" stroke-linecap="round" stroke-linejoin="round"/>
</g>
</g>
</svg>
