<svg width="32" height="32" viewBox="0 0 32 32" fill="none" xmlns="http://www.w3.org/2000/svg">
<g id="Group">
<g id="Group_2">
<path id="Path" d="M19.7787 12.268C18.8187 11.2826 17.4827 10.6666 15.9987 10.6666C14.5147 10.6666 13.1787 11.2826 12.2188 12.268" stroke="#C3C3C3" stroke-width="1.5" stroke-linecap="round" stroke-linejoin="round"/>
<path id="Path_2" d="M23.5758 8.47065C21.6372 6.53198 18.9585 5.33331 15.9998 5.33331C13.0412 5.33331 10.3625 6.53198 8.42383 8.47198" stroke="#C3C3C3" stroke-width="1.5" stroke-linecap="round" stroke-linejoin="round"/>
<path id="Path_3" fill-rule="evenodd" clip-rule="evenodd" d="M24.578 28H26.666C28.1393 28 29.3327 26.8066 29.3327 25.3333V23.9813C29.3327 22.6093 28.6287 21.3333 27.4633 20.5373C24.5873 18.576 20.534 17.3333 15.9993 17.3333C11.4647 17.3333 7.41135 18.576 4.53535 20.5386C3.37002 21.3346 2.66602 22.6106 2.66602 23.9813V25.3333C2.66602 26.8066 3.85935 28 5.33268 28H7.42068C8.52468 28 9.42068 27.104 9.42068 26V24.1826C9.42068 23.7733 9.66202 23.3946 10.0433 23.2466C11.8113 22.5613 13.838 22.1666 15.9993 22.1666C18.1607 22.1666 20.1873 22.5613 21.9553 23.2466C22.3367 23.3946 22.578 23.7733 22.578 24.1826V26C22.578 27.104 23.474 28 24.578 28V28Z" stroke="#C3C3C3" stroke-width="1.5" stroke-linecap="round" stroke-linejoin="round"/>
</g>
</g>
</svg>
