<svg width="32" height="32" viewBox="0 0 32 32" fill="none" xmlns="http://www.w3.org/2000/svg">
<g id="Group">
<path id="Path" fill-rule="evenodd" clip-rule="evenodd" d="M15.9993 28L10.666 29.3334V26.9334C10.666 26.8 10.7993 26.5334 10.9327 26.4L13.3327 24.2667V17.8667L3.59935 22.1334C3.19935 22.4 2.66602 22.1334 2.66602 21.6V19.3334C2.66602 18.9334 2.93268 18.5334 3.19935 18.2667L13.3327 11.6V5.33335C13.3327 3.86669 14.5327 2.66669 15.9993 2.66669C17.466 2.66669 18.666 3.86669 18.666 5.33335V11.6L28.7994 18.2667C29.1994 18.5334 29.3327 18.9334 29.3327 19.3334V21.6C29.3327 22.1334 28.7993 22.4 28.3993 22.2667L18.666 18V24.4L21.066 26.5334C21.1993 26.6667 21.3327 26.8 21.3327 27.0667V29.3334L15.9993 28Z" stroke="#C3C3C3" stroke-width="1.5" stroke-linecap="round" stroke-linejoin="round"/>
</g>
</svg>
