<svg width="32" height="32" viewBox="0 0 32 32" fill="none" xmlns="http://www.w3.org/2000/svg">
<g id="Group">
<g id="Group_2">
<path id="Path" d="M27.7238 12.6981C28.7771 13.7514 28.7771 15.4593 27.7238 16.5127C26.6704 17.566 24.9625 17.566 23.9092 16.5127C22.8558 15.4593 22.8558 13.7514 23.9092 12.6981C24.9625 11.6447 26.6704 11.6447 27.7238 12.6981" stroke="#C3C3C3" stroke-width="1.5" stroke-linecap="round" stroke-linejoin="round"/>
<path id="Path_2" d="M18.9378 7.88317C20.5598 9.50514 20.5598 12.1349 18.9378 13.7569C17.3159 15.3788 14.6861 15.3788 13.0641 13.7569C11.4422 12.1349 11.4422 9.50515 13.0641 7.88317C14.6861 6.26119 17.3159 6.26119 18.9378 7.88317" stroke="#C3C3C3" stroke-width="1.5" stroke-linecap="round" stroke-linejoin="round"/>
<path id="Path_3" d="M8.09291 12.6981C9.14629 13.7514 9.14629 15.4593 8.09291 16.5127C7.03954 17.566 5.33169 17.566 4.27831 16.5127C3.22494 15.4593 3.22494 13.7514 4.27831 12.6981C5.33169 11.6447 7.03954 11.6447 8.09291 12.6981" stroke="#C3C3C3" stroke-width="1.5" stroke-linecap="round" stroke-linejoin="round"/>
<path id="Path_4" d="M30.667 25.3334V23.872C30.667 22.0307 29.175 20.5387 27.3336 20.5387H26.2656" stroke="#C3C3C3" stroke-width="1.5" stroke-linecap="round" stroke-linejoin="round"/>
<path id="Path_5" d="M1.33398 25.3334V23.872C1.33398 22.0307 2.82598 20.5387 4.66732 20.5387H5.73532" stroke="#C3C3C3" stroke-width="1.5" stroke-linecap="round" stroke-linejoin="round"/>
<path id="Path_6" d="M23.1195 25.3334V23.1987C23.1195 20.6214 21.0302 18.532 18.4529 18.532H13.5475C10.9702 18.532 8.88086 20.6214 8.88086 23.1987V25.3334" stroke="#C3C3C3" stroke-width="1.5" stroke-linecap="round" stroke-linejoin="round"/>
</g>
</g>
</svg>
